<svg width="67" height="67" viewBox="0 0 67 67" fill="none" xmlns="http://www.w3.org/2000/svg">
<path d="M33.3172 59.8356C32.8124 59.8356 32.3283 59.6351 31.9713 59.2781C31.6144 58.9212 31.4138 58.437 31.4138 57.9322V6.30411C31.4138 5.79929 31.6144 5.31515 31.9713 4.95819C32.3283 4.60123 32.8124 4.4007 33.3172 4.4007C33.822 4.4007 34.3062 4.60123 34.6631 4.95819C35.0201 5.31515 35.2206 5.79929 35.2206 6.30411V57.9322C35.2206 58.1822 35.1714 58.4297 35.0757 58.6606C34.9801 58.8915 34.8399 59.1014 34.6631 59.2781C34.4864 59.4549 34.2766 59.5951 34.0456 59.6907C33.8147 59.7864 33.5672 59.8356 33.3172 59.8356Z" fill="#0C2134"/>
<path d="M33.3173 62.5994C32.8146 62.5991 32.3326 62.3992 31.9773 62.0436L17.2754 47.433C16.9268 47.0755 16.7327 46.5955 16.7348 46.0962C16.7368 45.5969 16.935 45.1185 17.2865 44.764C17.6381 44.4094 18.1148 44.2072 18.614 44.2009C19.1133 44.1946 19.595 44.3846 19.9554 44.7301L33.3173 58.016L46.6716 44.7378C47.032 44.3923 47.5137 44.2022 48.0129 44.2085C48.5122 44.2148 48.9889 44.4171 49.3404 44.7716C49.692 45.1261 49.8901 45.6046 49.8922 46.1038C49.8943 46.6031 49.7002 47.0832 49.3516 47.4406L34.6573 62.0436C34.302 62.3992 33.82 62.5991 33.3173 62.5994Z" fill="#0C2134"/>
</svg>
