<svg width="17" height="17" viewBox="0 0 17 17" fill="none" xmlns="http://www.w3.org/2000/svg">
<path d="M10.3757 4.72594C10.3757 4.82903 10.3413 4.93304 10.2726 5.02009L6.61176 9.57126C6.56774 9.62587 6.51205 9.66992 6.44878 9.70018C6.38551 9.73045 6.31627 9.74616 6.24613 9.74616C6.17599 9.74616 6.10675 9.73045 6.04348 9.70018C5.98021 9.66992 5.92452 9.62587 5.8805 9.57126L2.23891 5.03934C2.16527 4.94198 2.13248 4.81976 2.14748 4.69862C2.16249 4.57748 2.22411 4.46696 2.31928 4.39052C2.41444 4.31407 2.53565 4.27773 2.65718 4.2892C2.7787 4.30067 2.89097 4.35905 2.97016 4.45194L6.24659 8.52843L9.54089 4.43132C9.60178 4.3556 9.68468 4.30065 9.77814 4.27406C9.87161 4.24747 9.97102 4.25056 10.0627 4.2829C10.1543 4.31524 10.2336 4.37523 10.2897 4.45459C10.3458 4.53395 10.3758 4.62877 10.3757 4.72594Z" fill="#0C2134"/>
</svg>
