<svg width="191" height="190" viewBox="0 0 191 190" fill="none" xmlns="http://www.w3.org/2000/svg">
<path d="M27.8249 27.8249C43.3662 12.2835 63.8154 2.61175 85.6883 0.457454C107.561 -1.69685 129.504 3.79963 147.779 16.0104C166.054 28.2211 179.529 46.3905 185.909 67.4229C192.289 88.4552 191.179 111.049 182.769 131.355C174.358 151.661 159.166 168.422 139.783 178.782C120.399 189.143 98.023 192.462 76.4666 188.175C54.9101 183.887 35.5073 172.257 21.5641 155.267C7.62091 138.278 4.13971e-05 116.979 1.68518e-10 95.0002L35.6752 95.0001C35.6753 108.725 40.4343 122.026 49.1414 132.635C57.8485 143.245 69.965 150.507 83.4264 153.185C96.8878 155.862 110.861 153.79 122.966 147.32C135.07 140.85 144.557 130.383 149.809 117.703C155.061 105.022 155.754 90.913 151.77 77.7789C147.786 64.6448 139.371 53.2985 127.959 45.6733C116.547 38.048 102.844 34.6156 89.1851 35.9609C75.5261 37.3062 62.7562 43.346 53.0511 53.0511L27.8249 27.8249Z" fill="#3465D2" fill-opacity="0.11"/>
<line x1="73" y1="118" x2="191" y2="119" stroke="#3465D2" stroke-width="8"/>
</svg>
