<svg width="192" height="168" viewBox="0 0 192 168" fill="none" xmlns="http://www.w3.org/2000/svg">
<path d="M49.28 113.2L16 86.32L49.28 59.44C51.84 56.88 51.84 53.04 49.28 50.48C46.72 47.92 42.88 47.92 40.32 50.48L1.92 81.2C0.639998 82.48 0 84.4 0 86.32C0 88.24 0.639998 89.52 1.92 90.8L40.32 121.52C42.88 124.08 46.72 124.08 49.28 121.52C51.84 119.6 51.84 115.76 49.28 113.2ZM190.08 81.2L151.68 50.48C149.12 47.92 145.28 47.92 142.72 50.48C140.16 53.04 140.16 56.88 142.72 59.44L176 86.32L142.72 113.2C140.16 115.76 140.16 119.6 142.72 122.16C145.28 124.72 149.12 124.72 151.68 122.16L190.08 91.44C191.36 90.16 192 88.24 192 86.96C192 84.4 191.36 82.48 190.08 81.2ZM140.8 1.83997C137.6 -0.0800284 133.76 1.19997 131.84 4.39997L51.84 158.64C49.92 161.84 50.56 166.32 54.4 166.96C58.24 168.24 61.44 167.6 63.36 164.4L142.72 10.8C144.64 7.59997 143.36 3.75997 140.8 1.83997Z" fill="#3465D2" fill-opacity="0.11"/>
</svg>
