<svg width="40" height="40" viewBox="0 0 40 40" fill="none" xmlns="http://www.w3.org/2000/svg">
<path d="M37.1428 20C37.1428 23.7352 36.0528 27.0945 33.8727 30.0782C31.6927 33.0618 28.8764 35.1265 25.4241 36.2724C25.0223 36.3468 24.7284 36.2947 24.5424 36.1161C24.3563 35.9375 24.2633 35.7143 24.2633 35.4465V30.7366C24.2633 29.2932 23.8764 28.2366 23.1026 27.567C23.9508 27.4777 24.7135 27.3438 25.3906 27.1652C26.0677 26.9866 26.7671 26.6965 27.4888 26.2947C28.2105 25.8929 28.8132 25.3981 29.2968 24.8103C29.7805 24.2225 30.1748 23.4413 30.4799 22.4666C30.7849 21.4919 30.9374 20.3721 30.9374 19.1072C30.9374 17.3066 30.3496 15.7738 29.1741 14.509C29.7246 13.1548 29.6651 11.6369 28.9955 9.95539C28.5788 9.82146 27.9761 9.90331 27.1874 10.2009C26.3988 10.4985 25.7142 10.8259 25.1339 11.1831L24.2857 11.7188C22.9017 11.3319 21.4732 11.1384 19.9999 11.1384C18.5267 11.1384 17.0982 11.3319 15.7142 11.7188C15.4761 11.5551 15.1599 11.3542 14.7656 11.1161C14.3712 10.878 13.7499 10.5916 12.9017 10.2567C12.0535 9.92191 11.4136 9.82146 10.9821 9.95539C10.3273 11.6369 10.2752 13.1548 10.8258 14.509C9.65025 15.7738 9.06245 17.3066 9.06245 19.1072C9.06245 20.3721 9.21498 21.4881 9.52004 22.4554C9.8251 23.4227 10.2157 24.2039 10.6919 24.7991C11.1681 25.3944 11.7671 25.8929 12.4888 26.2947C13.2105 26.6965 13.9099 26.9866 14.587 27.1652C15.2641 27.3438 16.0267 27.4777 16.8749 27.567C16.2797 28.1027 15.9151 28.8691 15.7812 29.8661C15.4687 30.0149 15.1339 30.1265 14.7767 30.2009C14.4196 30.2753 13.9955 30.3125 13.5044 30.3125C13.0133 30.3125 12.526 30.1526 12.0424 29.8326C11.5587 29.5127 11.1458 29.0477 10.8035 28.4375C10.5208 27.9613 10.1599 27.5744 9.72093 27.2768C9.28194 26.9792 8.91364 26.8006 8.61602 26.7411L8.16959 26.6741C7.85709 26.6741 7.64132 26.7076 7.52227 26.7746C7.40322 26.8416 7.36602 26.9271 7.41066 27.0313C7.4553 27.1355 7.52227 27.2396 7.61156 27.3438C7.70084 27.448 7.79757 27.5372 7.90173 27.6116L8.05798 27.7232C8.38536 27.8721 8.70903 28.1548 9.02897 28.5715C9.34891 28.9881 9.58328 29.3676 9.73209 29.7099L9.95531 30.2232C10.1488 30.7887 10.4761 31.2463 10.9374 31.596C11.3988 31.9457 11.8973 32.1689 12.433 32.2657C12.9687 32.3624 13.4858 32.4145 13.9843 32.4219C14.4828 32.4293 14.8958 32.4033 15.2232 32.3438L15.7366 32.2545C15.7366 32.82 15.7738 33.4822 15.8482 34.2411C15.9226 35 15.9598 35.4018 15.9598 35.4465C15.9598 35.7143 15.863 35.9375 15.6696 36.1161C15.4761 36.2947 15.1785 36.3468 14.7767 36.2724C11.3244 35.1265 8.50813 33.0618 6.32807 30.0782C4.14801 27.0945 3.05798 23.7352 3.05798 20C3.05798 16.8899 3.82435 14.0216 5.35709 11.3951C6.88983 8.76864 8.96944 6.68902 11.5959 5.15628C14.2224 3.62355 17.0907 2.85718 20.2008 2.85718C23.311 2.85718 26.1793 3.62355 28.8058 5.15628C31.4322 6.68902 33.5119 8.76864 35.0446 11.3951C36.5773 14.0216 37.3437 16.8899 37.3437 20H37.1428Z" fill="#0C2134"/>
</svg>
