<svg width="40" height="39" viewBox="0 0 40 39" fill="none" xmlns="http://www.w3.org/2000/svg">
<path d="M19.8633 0.610107C9.23814 0.610107 0.62207 9.22514 0.62207 19.8536C0.62207 28.3544 6.13505 35.5667 13.7822 38.1115C14.7443 38.288 15.0956 37.694 15.0956 37.184C15.0956 36.7272 15.0789 35.5171 15.0696 33.9113C9.71697 35.0741 8.58758 31.3318 8.58758 31.3318C7.71264 29.1088 6.4511 28.5171 6.4511 28.5171C4.70401 27.3231 6.58324 27.3473 6.58324 27.3473C8.5143 27.4834 9.53067 29.3303 9.53067 29.3303C11.2472 32.2709 14.0342 31.4218 15.1308 30.9292C15.3056 29.6856 15.8027 28.8377 16.3525 28.3568C12.0796 27.8711 7.58753 26.2203 7.58753 18.8465C7.58753 16.7459 8.33728 15.0282 9.56819 13.683C9.37029 13.1962 8.70996 11.2398 9.75681 8.59057C9.75681 8.59057 11.3725 8.07319 15.0483 10.5632C16.5832 10.1363 18.2292 9.9229 19.8657 9.91546C21.4997 9.9229 23.1459 10.1364 24.6831 10.5632C28.3567 8.07311 29.9693 8.59057 29.9693 8.59057C31.0191 11.2398 30.3587 13.1962 30.1608 13.683C31.3941 15.0282 32.1388 16.7458 32.1388 18.8465C32.1388 26.2388 27.6398 27.8654 23.353 28.3417C24.044 28.9358 24.6594 30.1102 24.6594 31.9052C24.6594 34.4776 24.6358 36.553 24.6358 37.1839C24.6358 37.6985 24.9824 38.2972 25.9589 38.1092C33.5985 35.5596 39.107 28.3521 39.107 19.8535C39.107 9.22514 30.4907 0.610107 19.8633 0.610107Z" fill="white"/>
</svg>
