<svg width="37" height="38" viewBox="0 0 37 38" fill="none" xmlns="http://www.w3.org/2000/svg">
<path d="M18.8215 9.70768C13.6844 9.70768 9.52001 13.8721 9.52001 19.0092C9.52001 24.1463 13.6844 28.3107 18.8215 28.3107C23.9586 28.3107 28.123 24.1463 28.123 19.0092C28.123 13.8721 23.9586 9.70768 18.8215 9.70768ZM18.8215 25.0619C15.4788 25.0619 12.7688 22.352 12.7688 19.0092C12.7688 15.6664 15.4787 12.9565 18.8215 12.9565C22.1644 12.9565 24.8742 15.6664 24.8742 19.0092C24.8742 22.352 22.1644 25.0619 18.8215 25.0619ZM36.8512 11.1173C36.8512 5.44752 32.3833 0.979626 26.7135 0.979626C26.7135 0.979626 22.7034 0.851318 18.8216 0.851318C14.9398 0.851318 11.058 0.979626 11.058 0.979626C5.38823 0.979626 0.79194 5.57591 0.79194 11.2457C0.79194 11.2457 0.663635 14.875 0.663635 18.6244C0.663635 22.6302 0.79194 26.773 0.79194 26.773C0.79194 32.4427 5.38823 37.039 11.058 37.039C11.058 37.039 14.6873 37.1673 18.4367 37.1673C22.4425 37.1673 26.7136 37.039 26.7136 37.039C32.3834 37.039 36.8513 32.5711 36.8513 26.9014C36.8513 26.9014 36.9796 22.8052 36.9796 18.8811C36.9795 15.0423 36.8512 11.1173 36.8512 11.1173ZM33.6059 26.2737C33.6059 30.9229 30.7353 33.7935 26.0861 33.7935C26.0861 33.7935 21.7907 33.8987 18.506 33.8987C15.4315 33.8987 11.6854 33.7935 11.6854 33.7935C7.03628 33.7935 4.03734 30.7944 4.03734 26.1454C4.03734 26.1454 3.93207 21.9783 3.93207 18.6936C3.93207 15.6191 4.03734 11.7447 4.03734 11.7447C4.03734 7.0955 7.03636 4.22494 11.6854 4.22494C11.6854 4.22494 15.6384 4.11967 18.8216 4.11967C22.0048 4.11967 26.0861 4.22494 26.0861 4.22494C30.7353 4.22494 33.6059 7.0955 33.6059 11.7447C33.6059 11.7447 33.7111 15.7564 33.7111 18.9039C33.7111 22.1217 33.6059 26.2737 33.6059 26.2737ZM28.5681 7.12646C27.3269 7.12646 26.3206 8.1377 26.3206 9.38508C26.3206 10.6325 27.3269 11.6436 28.5681 11.6436C29.8093 11.6436 30.8155 10.6325 30.8155 9.38508C30.8155 8.13762 29.8093 7.12646 28.5681 7.12646Z" fill="white"/>
</svg>
