<svg width="34" height="33" viewBox="0 0 34 33" fill="none" xmlns="http://www.w3.org/2000/svg">
<path d="M1.43187 32.9138H8.45716V11.1354H1.43187V32.9138ZM25.3179 11.1354C21.9519 11.1354 20.0464 12.2512 18.9952 13.7162V11.1354H11.9699V32.9138H18.9952V20.7136C19.3714 17.4451 20.5364 16.9621 22.5493 16.7556C25.6984 16.4327 26.0205 18.7355 26.0205 20.9708C26.0205 23.2062 26.0205 32.9138 26.0205 32.9138H33.0458C33.0458 32.9138 33.0458 23.2274 33.0458 21.0985C33.0458 17.8645 32.6367 11.1354 25.3179 11.1354ZM4.94451 0.597412C2.7846 0.597412 0.729309 2.64174 0.729309 4.81262C0.729309 6.9835 2.7846 9.02783 4.94451 9.02783C7.10443 9.02783 9.15972 6.9835 9.15972 4.81262C9.15972 2.64174 7.10451 0.597412 4.94451 0.597412Z" fill="white"/>
</svg>
