<svg width="40" height="40" viewBox="0 0 40 40" fill="none" xmlns="http://www.w3.org/2000/svg">
<path d="M27.2667 23.3332C27.4 22.2332 27.5 21.1332 27.5 19.9999C27.5 18.8666 27.4 17.7666 27.2667 16.6666H32.9C33.1667 17.7332 33.3334 18.8499 33.3334 19.9999C33.3334 21.1499 33.1667 22.2666 32.9 23.3332H27.2667ZM24.3167 32.5999C25.3167 30.7499 26.0834 28.7499 26.6167 26.6666H31.5334C29.9187 29.447 27.3569 31.5532 24.3167 32.5999V32.5999ZM23.9 23.3332H16.1C15.9334 22.2332 15.8334 21.1332 15.8334 19.9999C15.8334 18.8666 15.9334 17.7499 16.1 16.6666H23.9C24.05 17.7499 24.1667 18.8666 24.1667 19.9999C24.1667 21.1332 24.05 22.2332 23.9 23.3332ZM20 33.2666C18.6167 31.2666 17.5 29.0499 16.8167 26.6666H23.1834C22.5 29.0499 21.3834 31.2666 20 33.2666ZM13.3334 13.3333H8.46671C10.0648 10.5453 12.6247 8.43573 15.6667 7.39992C14.6667 9.24992 13.9167 11.2499 13.3334 13.3333ZM8.46671 26.6666H13.3334C13.9167 28.7499 14.6667 30.7499 15.6667 32.5999C12.6311 31.5527 10.0748 29.4461 8.46671 26.6666V26.6666ZM7.10004 23.3332C6.83337 22.2666 6.66671 21.1499 6.66671 19.9999C6.66671 18.8499 6.83337 17.7332 7.10004 16.6666H12.7334C12.6 17.7666 12.5 18.8666 12.5 19.9999C12.5 21.1332 12.6 22.2332 12.7334 23.3332H7.10004ZM20 6.71659C21.3834 8.71658 22.5 10.9499 23.1834 13.3333H16.8167C17.5 10.9499 18.6167 8.71658 20 6.71659ZM31.5334 13.3333H26.6167C26.0951 11.269 25.3227 9.27641 24.3167 7.39992C27.3834 8.44992 29.9334 10.5666 31.5334 13.3333ZM20 3.33325C10.7834 3.33325 3.33337 10.8333 3.33337 19.9999C3.33337 24.4202 5.08932 28.6594 8.21493 31.785C11.3405 34.9106 15.5798 36.6666 20 36.6666C22.1887 36.6666 24.356 36.2355 26.3781 35.3979C28.4002 34.5603 30.2375 33.3327 31.7852 31.785C33.3328 30.2374 34.5605 28.4001 35.398 26.378C36.2356 24.3559 36.6667 22.1886 36.6667 19.9999C36.6667 15.5796 34.9108 11.3404 31.7852 8.2148C28.6595 5.0892 24.4203 3.33325 20 3.33325V3.33325Z" fill="#0C2134"/>
</svg>
